<?xml version="1.0" encoding="UTF-8"?>
<svg xmlns="http://www.w3.org/2000/svg" xmlns:xlink="http://www.w3.org/1999/xlink" id="Group_33888" data-name="Group 33888" width="272.26" height="63.392" viewBox="0 0 272.26 63.392">
  <defs>
    <clipPath id="clip-path">
      <rect id="Rectangle_11069" data-name="Rectangle 11069" width="272.26" height="63.392" fill="#fff"></rect>
    </clipPath>
  </defs>
  <g id="Group_20290" data-name="Group 20290" clip-path="url(#clip-path)">
    <path id="Path_17" data-name="Path 17" d="M1381.71,216.773a3.206,3.206,0,1,1,.148,6.41,3.282,3.282,0,0,1-3.274-3.325,3.112,3.112,0,0,1,3.126-3.084" transform="translate(-1201.703 -188.959)" fill="#fff"></path>
    <path id="Path_18" data-name="Path 18" d="M1341.137,265.364a2.614,2.614,0,0,1-2.747,2.771,2.844,2.844,0,0,1-2.835-2.781,2.894,2.894,0,0,1,2.913-2.867,2.7,2.7,0,0,1,2.669,2.877" transform="translate(-1164.195 -228.807)" fill="#fff"></path>
    <path id="Path_19" data-name="Path 19" d="M1396.031,285.253a2.752,2.752,0,0,1,2.83,2.732,2.841,2.841,0,1,1-2.83-2.732" transform="translate(-1214.427 -248.653)" fill="#fff"></path>
    <path id="Path_20" data-name="Path 20" d="M1444.041,257.058a2.833,2.833,0,0,1-2.79,2.84,2.814,2.814,0,1,1,2.79-2.84" transform="translate(-1253.869 -221.646)" fill="#fff"></path>
    <path id="Path_21" data-name="Path 21" d="M1319.49,211.992a2.753,2.753,0,0,1,.071,5.505,2.753,2.753,0,0,1-.071-5.505" transform="translate(-1147.85 -184.792)" fill="#fff"></path>
    <path id="Path_22" data-name="Path 22" d="M1350.151,168.007a2.669,2.669,0,1,1-5.332-.262,2.649,2.649,0,0,1,2.627-2.617,2.752,2.752,0,0,1,2.705,2.879" transform="translate(-1172.268 -143.941)" fill="#fff"></path>
    <path id="Path_23" data-name="Path 23" d="M1445.89,200.831a2.861,2.861,0,0,1,2.776,2.7,2.723,2.723,0,0,1-2.67,2.739,2.72,2.72,0,1,1-.106-5.44" transform="translate(-1258.048 -175.063)" fill="#fff"></path>
    <path id="Path_24" data-name="Path 24" d="M1409.7,160.84a2.483,2.483,0,0,1-2.575,2.585,2.589,2.589,0,0,1-2.71-2.8,2.536,2.536,0,0,1,2.549-2.631,2.77,2.77,0,0,1,2.736,2.841" transform="translate(-1224.218 -137.726)" fill="#fff"></path>
    <path id="Path_25" data-name="Path 25" d="M1352.274,345.216A2.327,2.327,0,0,1,1350,347.6a2.384,2.384,0,0,1-2.476-2.367,2.338,2.338,0,0,1,2.36-2.3,2.393,2.393,0,0,1,2.389,2.292" transform="translate(-1174.629 -298.925)" fill="#fff"></path>
    <path id="Path_26" data-name="Path 26" d="M1459.152,329.593a2.392,2.392,0,0,1-2.475,2.357,2.2,2.2,0,0,1-2.159-2.288,2.309,2.309,0,0,1,2.378-2.424,2.248,2.248,0,0,1,2.256,2.354" transform="translate(-1267.894 -285.252)" fill="#fff"></path>
    <path id="Path_27" data-name="Path 27" d="M1496.927,288.207a2.433,2.433,0,0,1-2.424,2.416,2.254,2.254,0,0,1-2.221-2.385,2.323,2.323,0,1,1,4.646-.031" transform="translate(-1300.813 -249.212)" fill="#fff"></path>
    <path id="Path_28" data-name="Path 28" d="M1407.248,350.027a2.4,2.4,0,0,1-2.244,2.42,2.37,2.37,0,0,1-2.493-2.3,2.33,2.33,0,0,1,2.327-2.312,2.282,2.282,0,0,1,2.41,2.2" transform="translate(-1222.561 -303.201)" fill="#fff"></path>
    <path id="Path_29" data-name="Path 29" d="M1304.283,316.852a2.112,2.112,0,0,1-2.278,2.28,2.317,2.317,0,1,1-.181-4.631,2.332,2.332,0,0,1,2.459,2.35" transform="translate(-1132.841 -274.148)" fill="#fff"></path>
    <path id="Path_30" data-name="Path 30" d="M1505.043,181.622a2.194,2.194,0,0,1-2.1,2.333,2.4,2.4,0,0,1-2.474-2.177,2.314,2.314,0,0,1,2.209-2.422,2.289,2.289,0,0,1,2.362,2.266" transform="translate(-1307.949 -156.343)" fill="#fff"></path>
    <path id="Path_31" data-name="Path 31" d="M1273.392,271.147a2.279,2.279,0,0,1-2.28,2.334,2.3,2.3,0,0,1-2.32-2.3,2.247,2.247,0,0,1,2.273-2.313,2.287,2.287,0,0,1,2.327,2.28" transform="translate(-1105.998 -234.37)" fill="#fff"></path>
    <path id="Path_32" data-name="Path 32" d="M1511.626,233.473a2.307,2.307,0,0,1-.11,4.607,2.306,2.306,0,0,1,.11-4.607" transform="translate(-1315.692 -203.516)" fill="#fff"></path>
    <path id="Path_33" data-name="Path 33" d="M1280.661,164.856a2.265,2.265,0,0,1-2.249-2.2,2.4,2.4,0,0,1,2.283-2.383,2.29,2.29,0,0,1-.034,4.579" transform="translate(-1114.384 -139.713)" fill="#fff"></path>
    <path id="Path_34" data-name="Path 34" d="M1265.973,216a2.206,2.206,0,1,1-4.407.172,2.3,2.3,0,0,1,2.24-2.361,2.066,2.066,0,0,1,2.167,2.189" transform="translate(-1099.699 -186.374)" fill="#fff"></path>
    <path id="Path_35" data-name="Path 35" d="M1372.062,104.272a2.069,2.069,0,0,1-2.132,2.239,2.266,2.266,0,0,1-2.4-2.211,2.127,2.127,0,0,1,2.116-2.129,2.1,2.1,0,0,1,2.419,2.1" transform="translate(-1192.065 -89.059)" fill="#fff"></path>
    <path id="Path_36" data-name="Path 36" d="M1424.987,106.914a2.309,2.309,0,0,1,2.355,2.273,2.078,2.078,0,0,1-2.12,2.118,2.164,2.164,0,0,1-2.325-2.258,2.031,2.031,0,0,1,2.089-2.133" transform="translate(-1240.332 -93.196)" fill="#fff"></path>
    <path id="Path_37" data-name="Path 37" d="M1475.34,137.566a2.155,2.155,0,0,1-2.185,2.21,2.108,2.108,0,0,1-2.176-2.2,1.859,1.859,0,0,1,1.955-2.15,2.178,2.178,0,0,1,2.406,2.14" transform="translate(-1282.243 -118.049)" fill="#fff"></path>
    <path id="Path_38" data-name="Path 38" d="M1325.456,125.56a2.061,2.061,0,0,1-2.148,2.228,2.15,2.15,0,0,1-2.19-2.063,2.215,2.215,0,0,1,2.116-2.305,2.046,2.046,0,0,1,2.222,2.14" transform="translate(-1151.61 -107.583)" fill="#fff"></path>
    <path id="Path_39" data-name="Path 39" d="M1418.026,413.729a1.838,1.838,0,0,1-2.027,1.82,1.684,1.684,0,0,1-1.743-1.892,1.886,1.886,0,0,1,3.77.072" transform="translate(-1232.796 -359.002)" fill="#fff"></path>
    <path id="Path_40" data-name="Path 40" d="M1551.418,321.73c-.042,1.3-.714,2.066-1.856,2.1a1.609,1.609,0,0,1-1.749-1.846,1.82,1.82,0,0,1,1.919-1.93,1.6,1.6,0,0,1,1.685,1.671" transform="translate(-1349.218 -278.994)" fill="#fff"></path>
    <path id="Path_41" data-name="Path 41" d="M1311.4,396.447c-.072,1.07-.526,1.763-1.671,1.795a1.712,1.712,0,0,1-2.013-1.776,1.628,1.628,0,0,1,1.81-1.807,1.775,1.775,0,0,1,1.874,1.788" transform="translate(-1139.929 -344.022)" fill="#fff"></path>
    <path id="Path_42" data-name="Path 42" d="M1516.739,366.387c-.218,1.085-.758,1.857-2.008,1.81a1.565,1.565,0,0,1-1.619-1.918,1.77,1.77,0,0,1,2.041-1.765c1.146.071,1.531.815,1.585,1.873" transform="translate(-1318.959 -317.739)" fill="#fff"></path>
    <path id="Path_43" data-name="Path 43" d="M1363.541,413.628a1.609,1.609,0,0,1-1.876,1.558,1.665,1.665,0,0,1-1.785-1.832,1.684,1.684,0,0,1,1.91-1.721c1.141.023,1.744.686,1.751,1.995" transform="translate(-1185.4 -358.818)" fill="#fff"></path>
    <path id="Path_44" data-name="Path 44" d="M1231.722,321.725c-.119,1.216-.7,1.907-1.873,1.813a1.68,1.68,0,0,1-1.649-1.958,1.587,1.587,0,0,1,1.781-1.648,1.682,1.682,0,0,1,1.742,1.794" transform="translate(-1070.611 -278.881)" fill="#fff"></path>
    <path id="Path_45" data-name="Path 45" d="M1211.843,270.373c-.081,1.272-.69,2.016-1.793,2.013a1.636,1.636,0,0,1-1.747-1.856,1.606,1.606,0,0,1,1.677-1.754,1.694,1.694,0,0,1,1.863,1.6" transform="translate(-1053.27 -234.288)" fill="#fff"></path>
    <path id="Path_46" data-name="Path 46" d="M1265.738,364.736c-.076,1.121-.558,1.809-1.651,1.869a1.741,1.741,0,0,1-2-1.781,1.634,1.634,0,0,1,1.783-1.813,1.82,1.82,0,0,1,1.87,1.724" transform="translate(-1100.15 -316.435)" fill="#fff"></path>
    <path id="Path_47" data-name="Path 47" d="M1469.132,399.722c-1.262-.014-1.941-.582-2-1.631a1.784,1.784,0,0,1,1.807-2.02,1.585,1.585,0,0,1,1.81,1.626,1.785,1.785,0,0,1-1.619,2.024" transform="translate(-1278.889 -345.25)" fill="#fff"></path>
    <path id="Path_48" data-name="Path 48" d="M1568.993,270.7c.032-1.062.529-1.751,1.637-1.771a1.6,1.6,0,0,1,1.759,1.823,1.685,1.685,0,0,1-1.838,1.8c-1.075-.031-1.6-.749-1.559-1.85" transform="translate(-1367.68 -234.423)" fill="#fff"></path>
    <path id="Path_49" data-name="Path 49" d="M1220.53,159.477a1.735,1.735,0,0,1,.553,2.625,1.61,1.61,0,0,1-2.115.667,1.572,1.572,0,0,1-.921-2c.33-1.344,1.316-1.5,2.483-1.287" transform="translate(-1061.702 -138.947)" fill="#fff"></path>
    <path id="Path_50" data-name="Path 50" d="M1563.253,162.324c.13,1.1.219,2.159-1.141,2.476a1.627,1.627,0,0,1-1.98-1.014,1.546,1.546,0,0,1,.563-2.137c.965-.648,1.834-.356,2.558.675" transform="translate(-1359.774 -140.609)" fill="#fff"></path>
    <path id="Path_51" data-name="Path 51" d="M1574.473,218.014a1.73,1.73,0,1,1,1.781-1.728,1.564,1.564,0,0,1-1.781,1.728" transform="translate(-1371.107 -187.025)" fill="#fff"></path>
    <path id="Path_52" data-name="Path 52" d="M1248.62,114.977a1.558,1.558,0,0,1-1.571-1.813,1.583,1.583,0,0,1,1.774-1.639,1.451,1.451,0,0,1,1.606,1.607,1.747,1.747,0,0,1-1.809,1.845" transform="translate(-1087.04 -97.215)" fill="#fff"></path>
    <path id="Path_53" data-name="Path 53" d="M1208.219,215.169c-.017,1.327-.558,1.978-1.652,2.019a1.534,1.534,0,0,1-1.716-1.706,1.685,1.685,0,0,1,1.851-1.793,1.407,1.407,0,0,1,1.517,1.48" transform="translate(-1050.26 -186.269)" fill="#fff"></path>
    <path id="Path_54" data-name="Path 54" d="M1535.235,118.835a1.606,1.606,0,0,1-1.691-1.724,1.478,1.478,0,0,1,1.594-1.641,1.654,1.654,0,0,1,1.729,1.75,1.487,1.487,0,0,1-1.632,1.615" transform="translate(-1336.781 -100.654)" fill="#fff"></path>
    <path id="Path_55" data-name="Path 55" d="M1392.883,48.858c-.994-.15-1.761-.615-1.771-1.7a1.53,1.53,0,0,1,1.638-1.621,1.559,1.559,0,0,1,1.764,1.648c0,1.021-.668,1.509-1.632,1.677" transform="translate(-1212.625 -39.691)" fill="#fff"></path>
    <path id="Path_56" data-name="Path 56" d="M1291.313,76.372a1.622,1.622,0,0,1-1.76,1.606,1.476,1.476,0,0,1-1.63-1.609,1.632,1.632,0,0,1,1.753-1.715,1.56,1.56,0,0,1,1.637,1.718" transform="translate(-1122.675 -65.075)" fill="#fff"></path>
    <path id="Path_57" data-name="Path 57" d="M1492.955,80.216c.29-1.165.929-1.813,2.095-1.571a1.618,1.618,0,0,1,1.333,1.78,1.389,1.389,0,0,1-1.235,1.5c-1.2.182-1.9-.477-2.193-1.707" transform="translate(-1301.4 -68.511)" fill="#fff"></path>
    <path id="Path_58" data-name="Path 58" d="M1337.6,54.2c.037-1.257.578-1.857,1.673-1.873a1.533,1.533,0,0,1,1.718,1.513,1.581,1.581,0,0,1-1.611,1.8,1.565,1.565,0,0,1-1.78-1.441" transform="translate(-1165.978 -45.615)" fill="#fff"></path>
    <path id="Path_59" data-name="Path 59" d="M1448.381,56.327a1.776,1.776,0,0,1-1.693,1.693c-.978-.246-1.778-.652-1.7-1.895a1.418,1.418,0,0,1,1.44-1.449,1.779,1.779,0,0,1,1.95,1.65" transform="translate(-1259.586 -47.656)" fill="#fff"></path>
    <path id="Path_60" data-name="Path 60" d="M1473.947,458.273a1.6,1.6,0,0,1-2.918,1.1,1.515,1.515,0,0,1,.561-2.067c1.148-.657,1.926-.22,2.358.962" transform="translate(-1282.134 -398.368)" fill="#fff"></path>
    <path id="Path_61" data-name="Path 61" d="M1561.93,397.009c-.232-1.019-.13-1.928,1.018-2.354a1.2,1.2,0,0,1,1.675.607,1.658,1.658,0,0,1-.444,2.077,1.41,1.41,0,0,1-2.248-.331" transform="translate(-1361.438 -343.914)" fill="#fff"></path>
    <path id="Path_62" data-name="Path 62" d="M1231.64,405.376c1.1.333,1.809.889,1.5,2.1a1.263,1.263,0,0,1-1.642.959c-1.148-.232-1.376-1.05-1.2-2.134.172-.565.7-.734,1.342-.924" transform="translate(-1072.397 -353.364)" fill="#fff"></path>
    <path id="Path_63" data-name="Path 63" d="M1171.972,318.28c-.127.9-.547,1.555-1.519,1.562a1.416,1.416,0,0,1-1.508-1.537,1.35,1.35,0,0,1,1.463-1.544c.994,0,1.4.632,1.565,1.519" transform="translate(-1018.961 -276.119)" fill="#fff"></path>
    <path id="Path_64" data-name="Path 64" d="M1618.576,297.6c1.076.293,1.541.892,1.324,1.918a1.44,1.44,0,0,1-1.47,1.258,1.274,1.274,0,0,1-1.333-1.191c-.172-1.069.406-1.689,1.48-1.984" transform="translate(-1409.587 -259.412)" fill="#fff"></path>
    <path id="Path_65" data-name="Path 65" d="M1276.545,439.929c-.011,1.14-.521,1.681-1.387,1.706a1.508,1.508,0,0,1-1.721-1.52,1.337,1.337,0,0,1,1.37-1.5,1.641,1.641,0,0,1,1.738,1.312" transform="translate(-1110.045 -382.334)" fill="#fff"></path>
    <path id="Path_66" data-name="Path 66" d="M1421.44,472.413a1.612,1.612,0,0,1-1.629,1.47,1.32,1.32,0,0,1-1.476-1.4,1.5,1.5,0,0,1,1.669-1.574,1.417,1.417,0,0,1,1.436,1.5" transform="translate(-1236.355 -410.492)" fill="#fff"></path>
    <path id="Path_67" data-name="Path 67" d="M1165.91,169a1.347,1.347,0,0,1-1.325-1.564,1.548,1.548,0,0,1,1.6-1.507,1.232,1.232,0,0,1,1.267,1.4A1.6,1.6,0,0,1,1165.91,169" transform="translate(-1015.153 -144.634)" fill="#fff"></path>
    <path id="Path_68" data-name="Path 68" d="M1323.435,461.874c.751-.913,1.57-1.122,2.44-.421a1.326,1.326,0,0,1,.383,1.766,1.4,1.4,0,0,1-1.787.742c-1.058-.276-1.245-1.063-1.036-2.086" transform="translate(-1153.565 -401.882)" fill="#fff"></path>
    <path id="Path_69" data-name="Path 69" d="M1521.133,431.205c.907.175,1.448.681,1.372,1.568a1.538,1.538,0,0,1-1.584,1.527,1.269,1.269,0,0,1-1.415-1.424,1.708,1.708,0,0,1,1.627-1.67" transform="translate(-1324.544 -375.879)" fill="#fff"></path>
    <path id="Path_70" data-name="Path 70" d="M1196.012,364.564c1.038.224,1.66.744,1.551,1.785a1.282,1.282,0,0,1-1.312,1.23,1.4,1.4,0,0,1-1.5-1.054c-.306-1.016.217-1.631,1.256-1.961" transform="translate(-1041.386 -317.788)" fill="#fff"></path>
    <path id="Path_71" data-name="Path 71" d="M1629.126,247.119a2.346,2.346,0,0,1-1.483-.08,1.549,1.549,0,0,1,.022-2.462,1.168,1.168,0,0,1,1.758.106c.724.838.488,1.66-.3,2.436" transform="translate(-1418.285 -212.893)" fill="#fff"></path>
    <path id="Path_72" data-name="Path 72" d="M1190.823,115.969c-.188.995-.583,1.736-1.629,1.755a1.217,1.217,0,0,1-1.321-1.332,1.537,1.537,0,0,1,1.563-1.677c.841-.037,1.2.584,1.386,1.253" transform="translate(-1035.463 -99.995)" fill="#fff"></path>
    <path id="Path_73" data-name="Path 73" d="M1315.607,13.738a1.434,1.434,0,0,1-1.424,1.476,1.267,1.267,0,0,1-1.483-1.2,1.379,1.379,0,0,1,1.473-1.555,1.325,1.325,0,0,1,1.434,1.275" transform="translate(-1144.267 -10.863)" fill="#fff"></path>
    <path id="Path_74" data-name="Path 74" d="M1223.388,71.035a1.207,1.207,0,0,1,1.237,1.378,1.449,1.449,0,0,1-1.594,1.459,1.2,1.2,0,0,1-1.281-1.363,1.515,1.515,0,0,1,1.638-1.475" transform="translate(-1064.988 -61.921)" fill="#fff"></path>
    <path id="Path_75" data-name="Path 75" d="M1154.075,222.554c.1-.907.518-1.542,1.521-1.49a1.251,1.251,0,0,1,1.233,1.437,1.4,1.4,0,0,1-1.386,1.505,1.239,1.239,0,0,1-1.367-1.452" transform="translate(-1005.996 -192.698)" fill="#fff"></path>
    <path id="Path_76" data-name="Path 76" d="M1611.387,150c1.082.27,1.63.834,1.44,1.874a1.233,1.233,0,0,1-1.25,1.1,1.371,1.371,0,0,1-1.413-1.143c-.217-.959.3-1.508,1.224-1.828" transform="translate(-1403.527 -130.754)" fill="#fff"></path>
    <path id="Path_77" data-name="Path 77" d="M1461.688,12.3c-.152,1.107-.709,1.564-1.684,1.43a1.283,1.283,0,0,1-1.174-1.206,1.111,1.111,0,0,1,.8-1.294,1.541,1.541,0,0,1,2.057,1.07" transform="translate(-1271.646 -9.708)" fill="#fff"></path>
    <path id="Path_78" data-name="Path 78" d="M1509.874,34.769a1.424,1.424,0,0,1-2.257.12,1.182,1.182,0,0,1-.231-1.631,1.267,1.267,0,0,1,1.585-.528c1.027.359,1.131,1.149.9,2.039" transform="translate(-1313.78 -28.449)" fill="#fff"></path>
    <path id="Path_79" data-name="Path 79" d="M1587.135,107.251c-1.089-.212-1.582-.823-1.4-1.846a1.107,1.107,0,0,1,1.2-.945,1.342,1.342,0,0,1,1.354,1.195c.206.97-.45,1.333-1.156,1.6" transform="translate(-1382.246 -91.057)" fill="#fff"></path>
    <path id="Path_80" data-name="Path 80" d="M1264.343,38.827a1.464,1.464,0,0,1,1.8-1.388,1.049,1.049,0,0,1,.993,1.134,1.347,1.347,0,0,1-1.14,1.406c-.939.209-1.409-.318-1.65-1.153" transform="translate(-1102.121 -32.616)" fill="#fff"></path>
    <path id="Path_81" data-name="Path 81" d="M1551.79,67.1a1.477,1.477,0,0,1-1.437-1.481,1.172,1.172,0,0,1,1.331-1.295,1.365,1.365,0,0,1,1.413,1.452,1.23,1.23,0,0,1-1.307,1.324" transform="translate(-1351.434 -56.073)" fill="#fff"></path>
    <path id="Path_82" data-name="Path 82" d="M1409.655,1.229a1.55,1.55,0,0,1-.738,1.237h-1.28A1.27,1.27,0,0,1,1407,.771,1.237,1.237,0,0,1,1408.214,0a1.383,1.383,0,0,1,1.441,1.228" transform="translate(-1226.362 0)" fill="#fff"></path>
    <path id="Path_83" data-name="Path 83" d="M18.379,171.707a71.05,71.05,0,0,0-8.426-.788,7.515,7.515,0,0,0-3.622.616,2.112,2.112,0,0,0-1.01,1.946,1.915,1.915,0,0,0,1.109,1.872,24.911,24.911,0,0,0,5.223,1.256q4.114.715,5.839,2.242t1.724,5.42q0,3.893-2.488,5.716T9.46,191.81a43.758,43.758,0,0,1-7.588-.838l-1.527-.246.2-4.484a73.247,73.247,0,0,0,8.524.788,7.89,7.89,0,0,0,3.72-.641,2.253,2.253,0,0,0,1.109-2.119,2.112,2.112,0,0,0-1.059-2.045,21.045,21.045,0,0,0-5.075-1.232A13.489,13.489,0,0,1,1.872,178.9Q0,177.472,0,173.678a6.535,6.535,0,0,1,2.587-5.666,11.026,11.026,0,0,1,6.627-1.872,46.973,46.973,0,0,1,7.736.788l1.527.3Z" transform="translate(0 -144.822)" fill="#fff"></path>
    <path id="Path_84" data-name="Path 84" d="M195.466,190.933h-5.371V166.3h5.322v1.527a12.8,12.8,0,0,1,6.406-2.069q4.287,0,6.258,2.414A18.687,18.687,0,0,1,217,165.754q4.435,0,6.258,2.735t1.823,9.239v13.205h-5.322V177.875a14.085,14.085,0,0,0-.813-5.666q-.813-1.675-3.375-1.675a13.371,13.371,0,0,0-4.78.985l-.838.345q.394.986.394,6.307v12.762h-5.321V178.269q0-4.385-.788-6.061t-3.449-1.675a10.731,10.731,0,0,0-4.582.985l-.739.3Z" transform="translate(-165.705 -144.487)" fill="#fff"></path>
    <path id="Path_85" data-name="Path 85" d="M519.433,173.884v11.234a2.339,2.339,0,0,0,.567,1.6,2.73,2.73,0,0,0,1.6.665l-.148,4.09a10.369,10.369,0,0,1-6.553-1.823,18.742,18.742,0,0,1-7.933,1.823q-7.343,0-7.342-7.834,0-3.744,2-5.42t6.135-2.02l6.356-.542v-1.774a2.985,2.985,0,0,0-3.4-3.548q-3.154,0-7.884.394l-1.577.1-.2-3.794a42.839,42.839,0,0,1,9.879-1.281q4.509,0,6.5,1.946t2,6.184m-11.037,6.11a3.314,3.314,0,0,0-3.4,3.7q0,3.4,3.006,3.4a19.03,19.03,0,0,0,5.223-.788l.887-.3v-6.553Z" transform="translate(-435.52 -144.487)" fill="#fff"></path>
    <path id="Path_86" data-name="Path 86" d="M706.619,190.933V166.3h5.322v2.956a23.428,23.428,0,0,1,8.376-3.5v5.371a34.6,34.6,0,0,0-7.243,2.168l-1.084.444v17.2Z" transform="translate(-615.956 -144.487)" fill="#fff"></path>
    <path id="Path_87" data-name="Path 87" d="M844.783,126.021h-6.8v10.84a11.511,11.511,0,0,0,.444,3.991q.443.986,2.266.985l4.04-.148.246,4.287a28.762,28.762,0,0,1-5.026.641q-4.189,0-5.74-1.922t-1.552-7.243V126.021h-3.154v-4.582h3.154v-7.145h5.321v7.145h6.8Z" transform="translate(-723.077 -99.629)" fill="#fff"></path>
    <path id="Path_88" data-name="Path 88" d="M973.52,172.639v-2.661H991.8v2.661l-14.634,19.315H991.8v2.661H973.52v-2.661l14.634-19.315Z" transform="translate(-848.612 -148.169)" fill="#fff"></path>
    <path id="Path_89" data-name="Path 89" d="M1698.371,195.486h-2.907V170.85h2.907v1.823a16.424,16.424,0,0,1,8.031-2.316q4.927,0,6.578,2.611t1.651,9.559v12.959h-2.956V182.675q0-5.666-1.084-7.662t-4.632-2a13.759,13.759,0,0,0-3.621.517,15.165,15.165,0,0,0-2.932,1.059l-1.035.493Z" transform="translate(-1477.926 -148.499)" fill="#fff"></path>
    <path id="Path_90" data-name="Path 90" d="M1909.1,193.023l1.478-.148.1,2.414a78.68,78.68,0,0,1-9.411.69q-5.322-.05-7.44-3.154t-2.119-9.559q0-12.909,10.15-12.91,4.878,0,7.292,2.784t2.414,8.894l-.1,2.365h-16.753q0,4.534,1.552,6.726t5.322,2.193q3.769,0,7.514-.3m-14.388-11.086h13.9q0-4.878-1.6-6.948t-5.124-2.069a6.627,6.627,0,0,0-5.346,2.143q-1.823,2.143-1.823,6.874" transform="translate(-1648.988 -148.499)" fill="#fff"></path>
    <path id="Path_91" data-name="Path 91" d="M12.942,438.016l-.009-4.5-2.232,3.75H10.3l-2.232-3.723v4.473H7.216v-6.176H7.94l2.576,4.341,2.541-4.341h.723l.009,6.176Z" transform="translate(-6.29 -376.433)" fill="#fff"></path>
    <path id="Path_92" data-name="Path 92" d="M85.869,428.477a.558.558,0,0,1,.574-.556.552.552,0,1,1-.574.556m.15,1.447h.847V434.6h-.847Z" transform="translate(-74.852 -373.016)" fill="#fff"></path>
    <path id="Path_93" data-name="Path 93" d="M125.784,445.214v2.691h-.847v-2.594c0-.917-.459-1.367-1.262-1.367a1.389,1.389,0,0,0-1.482,1.553v2.409h-.847v-4.676h.812v.706a2,2,0,0,1,1.685-.75,1.811,1.811,0,0,1,1.941,2.029" transform="translate(-105.777 -386.322)" fill="#fff"></path>
    <path id="Path_94" data-name="Path 94" d="M184.973,428.952V435.5h-.812v-.741a1.975,1.975,0,0,1-1.667.794,2.387,2.387,0,0,1,0-4.773,1.99,1.99,0,0,1,1.632.75v-2.576Zm-.838,4.208a1.577,1.577,0,1,0-1.57,1.65,1.539,1.539,0,0,0,1.57-1.65" transform="translate(-157.018 -373.915)" fill="#fff"></path>
    <path id="Path_95" data-name="Path 95" d="M244.345,428.477a.558.558,0,0,1,.573-.556.552.552,0,1,1-.573.556m.15,1.447h.847V434.6h-.847Z" transform="translate(-212.994 -373.016)" fill="#fff"></path>
    <path id="Path_96" data-name="Path 96" d="M284.26,445.214v2.691h-.847v-2.594c0-.917-.459-1.367-1.262-1.367a1.389,1.389,0,0,0-1.482,1.553v2.409h-.847v-4.676h.812v.706a2,2,0,0,1,1.685-.75,1.811,1.811,0,0,1,1.941,2.029" transform="translate(-243.919 -386.322)" fill="#fff"></path>
    <path id="Path_97" data-name="Path 97" d="M343.51,443.229v4.041a2.125,2.125,0,0,1-2.426,2.4,3.462,3.462,0,0,1-2.232-.7l.406-.653a2.854,2.854,0,0,0,1.8.609c1.1,0,1.606-.512,1.606-1.57v-.37a2.14,2.14,0,0,1-1.685.723,2.266,2.266,0,1,1,0-4.526,2.133,2.133,0,0,1,1.729.768v-.724Zm-.829,2.214a1.612,1.612,0,1,0-1.606,1.526,1.493,1.493,0,0,0,1.606-1.526" transform="translate(-295.16 -386.322)" fill="#fff"></path>
    <path id="Path_98" data-name="Path 98" d="M434.953,435.881v2.135h-.873v-2.153l-2.453-4.023h.944l1.976,3.255,1.985-3.255h.873Z" transform="translate(-376.247 -376.433)" fill="#fff"></path>
    <path id="Path_99" data-name="Path 99" d="M490.274,445.567a2.431,2.431,0,1,1,2.435,2.391,2.327,2.327,0,0,1-2.435-2.391m4.005,0a1.577,1.577,0,1,0-1.57,1.65,1.534,1.534,0,0,0,1.57-1.65" transform="translate(-427.369 -386.322)" fill="#fff"></path>
    <path id="Path_100" data-name="Path 100" d="M556.484,443.529V448.2h-.8V447.5a1.9,1.9,0,0,1-1.588.759,1.837,1.837,0,0,1-2.012-2.038v-2.691h.847v2.594c0,.918.459,1.376,1.262,1.376a1.376,1.376,0,0,0,1.447-1.553v-2.417Z" transform="translate(-481.247 -386.622)" fill="#fff"></path>
    <path id="Path_101" data-name="Path 101" d="M616.612,443.185v.82a1.522,1.522,0,0,0-.194-.009,1.4,1.4,0,0,0-1.473,1.579v2.329H614.1v-4.676h.812v.785a1.785,1.785,0,0,1,1.7-.829" transform="translate(-535.306 -386.322)" fill="#fff"></path>
    <path id="Path_102" data-name="Path 102" d="M697.306,436.348c0,1.059-.8,1.667-2.364,1.667h-2.947V431.84h2.77c1.42,0,2.214.6,2.214,1.6a1.464,1.464,0,0,1-.829,1.376,1.492,1.492,0,0,1,1.156,1.535m-4.429-3.794v1.976h1.809c.9,0,1.412-.335,1.412-.988s-.512-.988-1.412-.988Zm3.538,3.723c0-.715-.529-1.032-1.509-1.032h-2.029V437.3h2.029c.979,0,1.509-.309,1.509-1.023" transform="translate(-603.208 -376.432)" fill="#fff"></path>
    <path id="Path_103" data-name="Path 103" d="M762.262,443.529V448.2h-.8V447.5a1.9,1.9,0,0,1-1.588.759,1.837,1.837,0,0,1-2.012-2.038v-2.691h.847v2.594c0,.918.459,1.376,1.262,1.376a1.376,1.376,0,0,0,1.447-1.553v-2.417Z" transform="translate(-660.622 -386.622)" fill="#fff"></path>
    <path id="Path_104" data-name="Path 104" d="M815.268,447.411l.353-.671a3.005,3.005,0,0,0,1.641.485c.785,0,1.112-.238,1.112-.635,0-1.05-2.955-.141-2.955-2,0-.838.75-1.4,1.95-1.4a3.4,3.4,0,0,1,1.7.424l-.362.671a2.442,2.442,0,0,0-1.35-.371c-.741,0-1.1.274-1.1.644,0,1.1,2.964.2,2.964,2.02,0,.847-.776,1.385-2.02,1.385a3.374,3.374,0,0,1-1.932-.547" transform="translate(-710.664 -386.322)" fill="#fff"></path>
    <path id="Path_105" data-name="Path 105" d="M868.277,428.477a.558.558,0,0,1,.573-.556.552.552,0,1,1-.573.556m.15,1.447h.847V434.6h-.847Z" transform="translate(-756.872 -373.016)" fill="#fff"></path>
    <path id="Path_106" data-name="Path 106" d="M908.192,445.214v2.691h-.847v-2.594c0-.917-.459-1.367-1.262-1.367A1.389,1.389,0,0,0,904.6,445.5v2.409h-.847v-4.676h.812v.706a2,2,0,0,1,1.685-.75,1.812,1.812,0,0,1,1.941,2.029" transform="translate(-787.797 -386.322)" fill="#fff"></path>
    <path id="Path_107" data-name="Path 107" d="M967.178,445.85h-3.794a1.584,1.584,0,0,0,1.694,1.367,1.746,1.746,0,0,0,1.35-.565l.468.547a2.549,2.549,0,0,1-4.358-1.632,2.29,2.29,0,0,1,2.347-2.382,2.255,2.255,0,0,1,2.312,2.409c0,.071-.009.176-.018.256m-3.794-.609h3a1.509,1.509,0,0,0-3,0" transform="translate(-839.038 -386.322)" fill="#fff"></path>
    <path id="Path_108" data-name="Path 108" d="M1018.5,447.411l.353-.671a3,3,0,0,0,1.641.485c.785,0,1.112-.238,1.112-.635,0-1.05-2.956-.141-2.956-2,0-.838.75-1.4,1.95-1.4a3.4,3.4,0,0,1,1.7.424l-.362.671a2.442,2.442,0,0,0-1.35-.371c-.741,0-1.1.274-1.1.644,0,1.1,2.964.2,2.964,2.02,0,.847-.776,1.385-2.02,1.385a3.375,3.375,0,0,1-1.932-.547" transform="translate(-887.822 -386.322)" fill="#fff"></path>
    <path id="Path_109" data-name="Path 109" d="M1068.073,447.411l.353-.671a3,3,0,0,0,1.641.485c.785,0,1.112-.238,1.112-.635,0-1.05-2.956-.141-2.956-2,0-.838.75-1.4,1.95-1.4a3.4,3.4,0,0,1,1.7.424l-.362.671a2.441,2.441,0,0,0-1.35-.371c-.741,0-1.1.274-1.1.644,0,1.1,2.964.2,2.964,2.02,0,.847-.776,1.385-2.02,1.385a3.374,3.374,0,0,1-1.932-.547" transform="translate(-931.033 -386.322)" fill="#fff"></path>
    <path id="Path_110" data-name="Path 110" d="M2059.45,161.964h0a3.565,3.565,0,0,0-3.558-3.56v0h0v0a3.565,3.565,0,0,0-3.56,3.559h0v0h0a3.559,3.559,0,0,0,3.558,3.56v0h0v0a3.561,3.561,0,0,0,3.559-3.561m-5.146,1.822v-3.758h1.935a2.789,2.789,0,0,1,.823.093.869.869,0,0,1,.459.342,1.031,1.031,0,0,1,.174.608,1,1,0,0,1-.5.908,1.38,1.38,0,0,1-.408.147,1.162,1.162,0,0,1,.3.139,1.27,1.27,0,0,1,.186.2,1.5,1.5,0,0,1,.163.234l.562,1.09h-1.313l-.621-1.149a.889.889,0,0,0-.211-.29.49.49,0,0,0-.284-.087h-.1v1.525H2054.3Zm1.167-2.236h.49a1.769,1.769,0,0,0,.307-.051.311.311,0,0,0,.189-.118.352.352,0,0,0,.073-.217.343.343,0,0,0-.116-.279.692.692,0,0,0-.433-.1h-.51Zm4.947.413h0a4.511,4.511,0,0,1-.952,2.778,4.649,4.649,0,0,1-.375.425,4.516,4.516,0,0,1-3.2,1.325v0h0v0a4.525,4.525,0,0,1-4.525-4.526h0v0h0a4.523,4.523,0,0,1,4.526-4.525v0h0v0a4.523,4.523,0,0,1,4.524,4.526" transform="translate(-1788.161 -137.235)" fill="#fff"></path>
  </g>
</svg>
